<svg id="Home" xmlns="http://www.w3.org/2000/svg" width="24" height="24" viewBox="0 0 24 24">
  <g id="Home-2" data-name="Home">
    <rect id="Rectangle_4" data-name="Rectangle 4" width="24" height="24" fill="red" opacity="0"/>
  </g>
  <path id="Path_22161" data-name="Path 22161" d="M21.124,8.649a4.616,4.616,0,0,0-5.491-2.091,5.593,5.593,0,0,0-3.009,2.136A5.593,5.593,0,0,0,9.616,6.558,4.626,4.626,0,0,0,4.125,8.649C3.06,10.83,3.5,13.284,5.44,15.941a34.441,34.441,0,0,0,6.839,6.635.567.567,0,0,0,.7,0,33.826,33.826,0,0,0,6.839-6.635C21.748,13.284,22.19,10.83,21.124,8.649Z" transform="translate(-0.625 -2.519)" fill="rgba(199,199,204,0)" stroke="#000" stroke-width="1.5"/>
</svg>
