<svg id="d00e7e5680ca6b94ad08bd887e8b52a3" xmlns="http://www.w3.org/2000/svg" width="56.1" height="44.045" viewBox="0 0 56.1 44.045">
  <g id="Group_16805" data-name="Group 16805">
    <path id="Path_21316" data-name="Path 21316" d="M38.809-395.65a9.58,9.58,0,0,0-2.923,1c-.748.38-1.749,1.346-13.038,12.613-13.5,13.475-12.843,12.75-12.843,14.223,0,1.427-.138,1.254,7.434,8.827,7.537,7.526,7.3,7.319,8.723,7.319,1.473,0,.69.7,13.844-12.44,7.492-7.48,12.164-12.233,12.521-12.727a9.468,9.468,0,0,0,.92-1.726c.587-1.507.667-2.255.552-5.11-.046-1.369-.1-3.038-.115-3.705l-.023-1.208.61-.034a8.05,8.05,0,0,1,3.165.667,8.2,8.2,0,0,1,2.693,2.267,19.668,19.668,0,0,1,2.727,6.087c.092.472.069.472,1.772.057,1.565-.391,1.507-.2.783-2.428a16.913,16.913,0,0,0-3.648-6.594c-3.648-3.821-8.827-4.189-15.063-1.082-2.474,1.243-5.213,3.153-5.512,3.855a1.515,1.515,0,0,0,1.4,2.129c.541,0,.495.023,2.416-1.346a4.369,4.369,0,0,1,1.139-.679,3.556,3.556,0,0,1-.276,1.967,4.033,4.033,0,0,1-2.025,1.91,4.851,4.851,0,0,1-1.3.184,3.551,3.551,0,0,1-2.4-6.111A25.794,25.794,0,0,1,52.111-393.4a2.923,2.923,0,0,0,1.059-.264c.081-.242-.7-.978-1.4-1.324l-.737-.357-4.407-.161c-2.428-.081-5.029-.161-5.789-.2A17.41,17.41,0,0,0,38.809-395.65Zm-9.471,15.559.311.276.783,8.447c.437,4.649.794,8.642.794,8.872a.984.984,0,0,1-1.692.76l-.3-.311-.782-8.378c-.437-4.6-.783-8.6-.795-8.872A.992.992,0,0,1,29.338-380.091Zm8.125,4.016a4.427,4.427,0,0,1,2.025,2.025A3.216,3.216,0,0,1,39.8-372.3a3.216,3.216,0,0,1-.311,1.749,4.428,4.428,0,0,1-2.025,2.025,3.111,3.111,0,0,1-1.692.311,3.2,3.2,0,0,1-1.749-.334,4.434,4.434,0,0,1-2.083-2.117,3.123,3.123,0,0,1-.311-1.634,3.047,3.047,0,0,1,.311-1.622,4.357,4.357,0,0,1,2.658-2.359A4.651,4.651,0,0,1,37.463-376.075Zm-13.13,2.624a3.972,3.972,0,0,1,2.889,3.913,4.091,4.091,0,0,1-2.29,3.74,2.959,2.959,0,0,1-1.818.345,3.052,3.052,0,0,1-1.818-.334,4.143,4.143,0,0,1-1.116-6.628A3.957,3.957,0,0,1,24.332-373.451Z" transform="translate(-10 395.705)" fill="rgba(0,0,0,0.5)"/>
    <path id="Path_21317" data-name="Path 21317" d="M432.248-16.348a1.7,1.7,0,0,0-1.208,1.669,1.553,1.553,0,0,0,.955,1.473,1.266,1.266,0,0,0,1.427-.011,1.723,1.723,0,0,0,.955-1.484A1.757,1.757,0,0,0,432.248-16.348Z" transform="translate(-406.938 38.107)" fill="rgba(0,0,0,0.5)"/>
    <path id="Path_21318" data-name="Path 21318" d="M210.779,33.265a1.676,1.676,0,1,0,2.405.622A1.76,1.76,0,0,0,210.779,33.265Z" transform="translate(-198.587 -8.48)" fill="rgba(0,0,0,0.5)"/>
  </g>
</svg>
