<svg xmlns="http://www.w3.org/2000/svg" width="24" height="24" viewBox="0 0 24 24">
  <g id="Group_18767" data-name="Group 18767" transform="translate(-6219.288 -13876.317)">
    <rect id="Rectangle_4117" data-name="Rectangle 4117" width="24" height="24" transform="translate(6219.288 13876.317)" fill="none"/>
    <path id="home-svgrepo-com" d="M9.608,22.334H7.3A2.3,2.3,0,0,1,5,20.03V11.875a2.3,2.3,0,0,1,.8-1.749l5.759-4.937a2.3,2.3,0,0,1,3,0l5.759,4.937a2.3,2.3,0,0,1,.8,1.749V20.03a2.3,2.3,0,0,1-2.3,2.3h-2.3m-6.911,0V15.423a1.152,1.152,0,0,1,1.152-1.152h4.608a1.152,1.152,0,0,1,1.152,1.152v6.911m-6.911,0h6.911" transform="translate(6218.225 13874.833)" fill="none" stroke="#000" stroke-linecap="round" stroke-linejoin="round" stroke-width="1.3"/>
  </g>
</svg>
