<svg xmlns="http://www.w3.org/2000/svg" xmlns:xlink="http://www.w3.org/1999/xlink" width="187" height="235" viewBox="0 0 187 235">
  <defs>
    <clipPath id="clip-path">
      <rect id="Rectangle_4395" data-name="Rectangle 4395" width="187" height="235" transform="translate(0 577)" fill="#fff" stroke="#707070" stroke-width="1"/>
    </clipPath>
  </defs>
  <g id="Mask_Group_62" data-name="Mask Group 62" transform="translate(0 -577)" clip-path="url(#clip-path)">
    <g id="Group_1077" data-name="Group 1077" transform="translate(-71 577)">
      <path id="Path_9196" data-name="Path 9196" d="M-297,0c27.1.6,54.2,1.1,76.4,12.1C-198.5,23-181.2,44.3-158,56.2c23.2,12,52.4,14.7,71,30.8,18.7,16.1,26.8,45.6,29,72,2.3,26.4-1.4,49.5,7.3,72S-21,275.2,0,297H-297Z" transform="translate(297)" fill="#f1f6fe"/>
      <path id="Path_9197" data-name="Path 9197" d="M-247.5,0c22.6.5,45.1.9,63.6,10s32.9,26.9,52.2,36.9c19.4,10,43.7,12.2,59.2,25.6s22.3,38,24.2,60-1.2,41.3,6.1,60c7.2,18.7,24.7,36.9,42.2,55H-247.5Z" transform="translate(247.5 49.5)" fill="#d3e5fd"/>
      <path id="Path_9198" data-name="Path 9198" d="M-198,0c18.1.4,36.1.8,50.9,8,14.8,7.3,26.3,21.5,41.8,29.5,15.4,8,34.9,9.8,47.3,20.5s17.9,30.4,19.3,48c1.5,17.6-.9,33,4.9,48S-14,183.5,0,198H-198Z" transform="translate(198 99)" fill="#b4d4fc"/>
      <path id="Path_9199" data-name="Path 9199" d="M-148.5,0c13.5.3,27.1.6,38.2,6C-99.2,11.5-90.6,22.1-79,28.1s26.2,7.3,35.5,15.4c9.3,8,13.4,22.8,14.5,36s-.7,24.8,3.7,36c4.3,11.2,14.8,22.1,25.3,33H-148.5Z" transform="translate(148.5 148.5)" fill="#92c4fa"/>
      <path id="Path_9200" data-name="Path 9200" d="M-99,0c9,.2,18.1.4,25.5,4,7.3,3.7,13.1,10.8,20.8,14.7,7.8,4,17.5,4.9,23.7,10.3s8.9,15.2,9.7,24c.7,8.8-.5,16.5,2.4,24S-7,91.7,0,99H-99Z" transform="translate(99 198)" fill="#69b4f8"/>
      <path id="Path_9201" data-name="Path 9201" d="M-49.5,0c4.5.1,9,.2,12.7,2s6.6,5.4,10.5,7.4c3.8,2,8.7,2.4,11.8,5.1s4.5,7.6,4.8,12c.4,4.4-.2,8.3,1.3,12,1.4,3.7,4.9,7.4,8.4,11H-49.5Z" transform="translate(49.5 247.5)" fill="#4facf7"/>
    </g>
  </g>
</svg>
