<svg xmlns="http://www.w3.org/2000/svg" width="24" height="24" viewBox="0 0 24 24">
  <g id="Cart_6" data-name="Cart 6" transform="translate(-13019.826 8739.174)">
    <rect id="Rectangle_4827" data-name="Rectangle 4827" width="24" height="24" transform="translate(13019.826 -8739.174)" fill="none"/>
    <g id="_73327646e297a1f99adf14b3f7254415" data-name="73327646e297a1f99adf14b3f7254415" transform="translate(13010.881 -8748.119)">
      <path id="Path_21533" data-name="Path 21533" d="M31.89,29.153a2.739,2.739,0,0,1-2.736,2.736H12.736A2.739,2.739,0,0,1,10,29.153v-13a2.677,2.677,0,0,1,.205-1.021A2.734,2.734,0,0,1,10,14.1V12.734A2.739,2.739,0,0,1,12.736,10H29.153a2.739,2.739,0,0,1,2.736,2.736v1.369a2.734,2.734,0,0,1-.205,1.032,2.677,2.677,0,0,1,.205,1.021v13ZM30.52,12.736a1.368,1.368,0,0,0-1.367-1.367H12.736a1.368,1.368,0,0,0-1.367,1.367v1.369a1.368,1.368,0,0,0,1.367,1.367H29.153a1.368,1.368,0,0,0,1.367-1.367V12.736Zm0,3.723a2.69,2.69,0,0,1-1.367.38H12.736a2.706,2.706,0,0,1-1.367-.38V29.153a1.37,1.37,0,0,0,1.367,1.369H29.153a1.369,1.369,0,0,0,1.367-1.369V16.46Zm-2.05,3.8h-.719a6.84,6.84,0,0,1-13.612,0H13.42a.683.683,0,0,1,0-1.367h2.736a.683.683,0,0,1,0,1.367h-.637a5.468,5.468,0,0,0,10.851,0h-.637a.683.683,0,0,1,0-1.367H28.47a.683.683,0,1,1,0,1.367Z" fill="#aeaeb2"/>
    </g>
  </g>
</svg>
