<svg xmlns="http://www.w3.org/2000/svg" width="30" height="30" viewBox="0 0 30 30">
  <g id="Cart" transform="translate(0)">
    <rect id="Rectangle_3436" data-name="Rectangle 3436" width="30" height="30" transform="translate(0 0)" fill="none"/>
    <path id="local_mall_FILL0_wght300_GRAD0_opsz24" d="M142.412,202.012A2.391,2.391,0,0,1,140,199.6V184.416a2.391,2.391,0,0,1,2.411-2.411h2.924a6,6,0,1,1,12,0h2.924a2.391,2.391,0,0,1,2.411,2.411V199.6a2.391,2.391,0,0,1-2.411,2.411Zm0-2h17.852a.441.441,0,0,0,.41-.41V184.416a.441.441,0,0,0-.41-.41H142.412a.441.441,0,0,0-.41.41V199.6a.441.441,0,0,0,.41.41Zm8.926-8.67a5.981,5.981,0,0,0,6-6h-2a4,4,0,1,1-8,0h-2a5.981,5.981,0,0,0,6,6Zm-4-9.337h8a4,4,0,1,0-8,0ZM142,200.011v0Z" transform="translate(-136.257 -174.008)" fill="#001b38"/>
  </g>
</svg>
