<svg xmlns="http://www.w3.org/2000/svg" xmlns:xlink="http://www.w3.org/1999/xlink" width="42" height="42" viewBox="0 0 42 42">
  <defs>
    <clipPath id="clip-path">
      <rect id="Rectangle_4857" data-name="Rectangle 4857" width="22.078" height="25.43" fill="#555"/>
    </clipPath>
  </defs>
  <g id="Group_22147" data-name="Group 22147" transform="translate(-33 -414)">
    <rect id="Rectangle_4860" data-name="Rectangle 4860" width="42" height="42" transform="translate(33 414)" fill="none"/>
    <g id="Group_22146" data-name="Group 22146">
      <path id="blob_3_" data-name="blob (3)" d="M-43.364-42.975a8.954,8.954,0,0,1,5.03,5.324A9.66,9.66,0,0,1-38.5-30.6a11.631,11.631,0,0,1-5.164,5.521c-2.367,1.331-5.245,1.986-8.8,2.728-3.55.764-7.773,1.593-11.243.567a10.232,10.232,0,0,1-6.886-7.048,10.377,10.377,0,0,1,2.367-8.947,15.258,15.258,0,0,1,7.935-4.844c2.878-.764,5.7-.676,8.607-.807C-48.77-43.543-45.758-43.87-43.364-42.975Z" transform="translate(117.24 435.953) rotate(-30)" fill="red" opacity="0.15"/>
      <g id="Group_22140" data-name="Group 22140" transform="translate(-39.261 -3.338)">
        <rect id="Rectangle_4855" data-name="Rectangle 4855" width="28" height="28" transform="translate(79.261 422.339)" fill="none"/>
        <g id="Group_22136" data-name="Group 22136" transform="translate(82.222 423.624)">
          <g id="Group_22130" data-name="Group 22130" transform="translate(0 0)" clip-path="url(#clip-path)">
            <path id="Path_41900" data-name="Path 41900" d="M26.969,6.8A6.807,6.807,0,1,1,20.156,0a6.823,6.823,0,0,1,6.813,6.8M20.162,1.775A5.025,5.025,0,1,0,25.194,6.8a5.039,5.039,0,0,0-5.032-5.022" transform="translate(-9.124 0)" fill="#555"/>
            <path id="Path_41901" data-name="Path 41901" d="M10.739,48.5a12.462,12.462,0,0,1,8,2.615A8.148,8.148,0,0,1,22.078,57.7a.875.875,0,0,1-1.728.18c-.056-.288-.04-.589-.078-.881a6.857,6.857,0,0,0-3.07-4.833,10.512,10.512,0,0,0-6.873-1.855,10.223,10.223,0,0,0-5.46,1.857,6.961,6.961,0,0,0-3.007,4.453,10.523,10.523,0,0,0-.1,1.074.924.924,0,0,1-.656.84.853.853,0,0,1-.964-.374A1.19,1.19,0,0,1,0,57.583a8.061,8.061,0,0,1,2.6-5.808,11.344,11.344,0,0,1,6.427-3.1c.665-.1,1.34-.139,1.713-.176" transform="translate(0 -33.134)" fill="#555"/>
          </g>
        </g>
      </g>
    </g>
  </g>
</svg>
