<svg id="Group_20247" data-name="Group 20247" xmlns="http://www.w3.org/2000/svg" xmlns:xlink="http://www.w3.org/1999/xlink" width="73.019" height="65.255" viewBox="0 0 73.019 65.255">
  <defs>
    <clipPath id="clip-path">
      <rect id="Rectangle_4577" data-name="Rectangle 4577" width="73.019" height="65.255" fill="none"/>
    </clipPath>
  </defs>
  <g id="Group_22068" data-name="Group 22068" clip-path="url(#clip-path)">
    <path id="Path_41861" data-name="Path 41861" d="M288.711,422.735l-.563.157a1.336,1.336,0,0,1-1.646-.927l-5.253-18.8a1.336,1.336,0,0,1,.927-1.646l.563-.157Z" transform="translate(-268.428 -383.132)" fill="#3b8c6e"/>
    <path id="Path_41862" data-name="Path 41862" d="M1397.156,420.566l-.6-.162,5.093-19.044.6.162a1.038,1.038,0,0,1,.735,1.271l-4.556,17.038a1.038,1.038,0,0,1-1.271.735" transform="translate(-1333.127 -383.132)" fill="#3b8c6e"/>
    <path id="Path_41863" data-name="Path 41863" d="M384.048,435.935H332.29a.624.624,0,0,1,0-1.249h51.758a.624.624,0,0,1,0,1.249" transform="translate(-316.604 -414.945)" fill="#bdc7d6"/>
    <path id="Path_41864" data-name="Path 41864" d="M422.963,603.735h-47.92a.6.6,0,1,1,0-1.2h47.92a.6.6,0,1,1,0,1.2" transform="translate(-357.438 -575.17)" fill="#bdc7d6"/>
    <path id="Path_41865" data-name="Path 41865" d="M473.171,771.448H429.888a.582.582,0,1,1,0-1.163h43.284a.582.582,0,1,1,0,1.163" transform="translate(-409.809 -735.303)" fill="#bdc7d6"/>
    <path id="Path_41866" data-name="Path 41866" d="M420.143,329.043a.625.625,0,0,1-.6-.471l-6.964-27.4a.624.624,0,1,1,1.21-.308l6.963,27.4a.625.625,0,0,1-.605.778" transform="translate(-393.82 -286.756)" fill="#bdc7d6"/>
    <path id="Path_41867" data-name="Path 41867" d="M530.141,329.03a.625.625,0,0,1-.612-.5l-5.484-27.4a.624.624,0,1,1,1.224-.245l5.484,27.4a.625.625,0,0,1-.613.747" transform="translate(-500.234 -286.744)" fill="#bdc7d6"/>
    <path id="Path_41868" data-name="Path 41868" d="M640.137,329.051a.624.624,0,0,1-.617-.534l-4-27.4a.624.624,0,1,1,1.235-.18l4,27.4a.624.624,0,0,1-.527.708.632.632,0,0,1-.091.007" transform="translate(-606.648 -286.764)" fill="#bdc7d6"/>
    <path id="Path_41869" data-name="Path 41869" d="M750.133,329.047a.625.625,0,0,1-.621-.567l-2.525-27.4a.624.624,0,0,1,1.243-.115l2.525,27.4a.625.625,0,0,1-.564.679l-.058,0" transform="translate(-713.06 -286.76)" fill="#bdc7d6"/>
    <path id="Path_41870" data-name="Path 41870" d="M860.133,329.045a.624.624,0,0,1-.623-.6l-1.045-27.4a.624.624,0,1,1,1.248-.048l1.045,27.4a.625.625,0,0,1-.6.648h-.024" transform="translate(-819.477 -286.759)" fill="#bdc7d6"/>
    <path id="Path_41871" data-name="Path 41871" d="M960.99,329.031h-.01a.624.624,0,0,1-.614-.634L960.8,301a.617.617,0,0,1,.634-.614.624.624,0,0,1,.614.634l-.435,27.4a.625.625,0,0,1-.624.614" transform="translate(-916.751 -286.744)" fill="#bdc7d6"/>
    <path id="Path_41872" data-name="Path 41872" d="M1039.886,329.034l-.044,0a.624.624,0,0,1-.579-.666l1.914-27.4a.624.624,0,1,1,1.245.087l-1.914,27.4a.624.624,0,0,1-.622.581" transform="translate(-992.063 -286.748)" fill="#bdc7d6"/>
    <path id="Path_41873" data-name="Path 41873" d="M1118.779,329.039a.64.64,0,0,1-.078,0,.624.624,0,0,1-.543-.7l3.394-27.4a.624.624,0,0,1,1.239.153l-3.394,27.4a.624.624,0,0,1-.619.548" transform="translate(-1067.373 -286.752)" fill="#bdc7d6"/>
    <path id="Path_41874" data-name="Path 41874" d="M1197.673,329.044a.624.624,0,0,1-.615-.734l4.874-27.4a.624.624,0,0,1,1.229.219l-4.874,27.4a.624.624,0,0,1-.614.515" transform="translate(-1142.684 -286.757)" fill="#bdc7d6"/>
    <path id="Path_41875" data-name="Path 41875" d="M1276.567,329.04a.625.625,0,0,1-.609-.765l6.353-27.4a.624.624,0,1,1,1.216.282l-6.353,27.4a.625.625,0,0,1-.607.484" transform="translate(-1217.995 -286.753)" fill="#bdc7d6"/>
    <path id="Path_41876" data-name="Path 41876" d="M500.334,324.871H463.416a.832.832,0,0,1,0-1.665h36.917a3.431,3.431,0,0,0,3.348-2.519l6.353-24.254a.832.832,0,1,1,1.61.422l-6.353,24.254a5.1,5.1,0,0,1-4.959,3.762" transform="translate(-441.576 -282.376)" fill="#bdc7d6"/>
    <path id="Path_41877" data-name="Path 41877" d="M529.541,1219.373a5.053,5.053,0,1,0-5.053,5.054,5.053,5.053,0,0,0,5.053-5.054" transform="translate(-495.844 -1159.172)" fill="#304754"/>
    <path id="Path_41878" data-name="Path 41878" d="M577.783,1270.027a2.644,2.644,0,1,0-2.644,2.644,2.644,2.644,0,0,0,2.644-2.644" transform="translate(-546.496 -1209.826)" fill="#bdc7d6"/>
    <path id="Path_41879" data-name="Path 41879" d="M1120.84,1219.373a5.054,5.054,0,1,0-5.053,5.054,5.053,5.053,0,0,0,5.053-5.054" transform="translate(-1060.29 -1159.172)" fill="#304754"/>
    <path id="Path_41880" data-name="Path 41880" d="M1169.082,1270.027a2.644,2.644,0,1,0-2.644,2.644,2.644,2.644,0,0,0,2.644-2.644" transform="translate(-1110.942 -1209.826)" fill="#bdc7d6"/>
    <path id="Path_41881" data-name="Path 41881" d="M611.537,1183.1l-.714,4.77a1.049,1.049,0,0,0,.595,1.106l.4.185a1.049,1.049,0,0,0,1.331-.393l3.665-5.836a.669.669,0,0,0-.567-1.026h-3.323a1.4,1.4,0,0,0-1.385,1.193" transform="translate(-583.072 -1128.234)" fill="#3b8c6e"/>
    <path id="Path_41882" data-name="Path 41882" d="M1199.6,1183.1l-.714,4.77a1.049,1.049,0,0,0,.595,1.106l.4.185a1.049,1.049,0,0,0,1.331-.393l3.665-5.836a.67.67,0,0,0-.567-1.026h-3.323a1.4,1.4,0,0,0-1.385,1.193" transform="translate(-1144.43 -1128.234)" fill="#3b8c6e"/>
    <path id="Path_41883" data-name="Path 41883" d="M137.317,76.476H94.7A3.458,3.458,0,0,1,91.593,71.5l3.943-8.072L84.988,25.919h-4.56a1.432,1.432,0,0,1,0-2.863h5.644A1.431,1.431,0,0,1,87.451,24.1L98.44,63.179a1.431,1.431,0,0,1-.092,1.016l-4.183,8.562a.595.595,0,0,0,.534.856h42.618a1.432,1.432,0,0,1,0,2.863" transform="translate(-75.409 -22.009)" fill="#a0b0c1"/>
    <path id="Path_41884" data-name="Path 41884" d="M333.847,285.488H277.7a1.432,1.432,0,1,1,0-2.863h56.146a1.432,1.432,0,0,1,0,2.863" transform="translate(-263.723 -269.79)" fill="#a0b0c1"/>
    <path id="Path_41885" data-name="Path 41885" d="M7.469,13.732H2.553A2.553,2.553,0,0,1,0,11.179,1.344,1.344,0,0,1,1.381,9.835L7.469,10Z" transform="translate(0 -9.388)" fill="#3b8c6e"/>
    <path id="Path_41886" data-name="Path 41886" d="M147.87,4.958h0a.789.789,0,0,1-.789-.789V.79a.789.789,0,0,1,1.579,0V4.169a.789.789,0,0,1-.789.789" transform="translate(-140.401 -0.001)" fill="#3b8c6e"/>
    <path id="Path_41887" data-name="Path 41887" d="M1470.864,277.811h-4.31a.952.952,0,0,1-.952-.952v-1.7a.952.952,0,0,1,.952-.952h3.417a2.091,2.091,0,0,1,2.091,2.091v.313a1.2,1.2,0,0,1-1.2,1.2" transform="translate(-1399.042 -261.757)" fill="#3b8c6e"/>
    <path id="Path_41888" data-name="Path 41888" d="M442.523,297.878H397.978a.38.38,0,0,1,0-.76h44.545a.38.38,0,1,1,0,.76" transform="translate(-379.541 -283.625)" fill="#bdc7d6"/>
    <path id="Path_41889" data-name="Path 41889" d="M473.563,1151.833H432.8a.38.38,0,0,1,0-.76h40.763a.38.38,0,0,1,0,.76" transform="translate(-412.782 -1098.797)" fill="#bdc7d6"/>
    <path id="Path_41890" data-name="Path 41890" d="M1501.8,283.663h-2.448a.519.519,0,1,1,0-1.038h2.448a.519.519,0,1,1,0,1.038" transform="translate(-1430.768 -269.79)" fill="#7db6a1"/>
    <path id="Path_41891" data-name="Path 41891" d="M23.405,19.484H18.748a.519.519,0,0,1,0-1.038h4.657a.519.519,0,0,1,0,1.038" transform="translate(-17.401 -17.608)" fill="#7db6a1"/>
    <path id="Path_41892" data-name="Path 41892" d="M643.138,1229.041a.409.409,0,0,1-.356-.609l1.9-3.394a.409.409,0,0,1,.713.4l-1.9,3.394a.409.409,0,0,1-.357.209" transform="translate(-613.54 -1169.204)" fill="#7db6a1"/>
    <path id="Path_41893" data-name="Path 41893" d="M1225.444,1229.04a.409.409,0,0,1-.356-.609l1.9-3.394a.409.409,0,0,1,.713.4l-1.9,3.394a.409.409,0,0,1-.357.209" transform="translate(-1169.401 -1169.203)" fill="#7db6a1"/>
  </g>
</svg>
