<svg xmlns="http://www.w3.org/2000/svg" width="80" height="80" viewBox="0 0 80 80">
  <g id="Exit" transform="translate(-2457.139 5721.836)">
    <rect id="Rectangle_4865" data-name="Rectangle 4865" width="80" height="80" transform="translate(2457.139 -5721.836)" fill="none"/>
    <path id="Path_41926" data-name="Path 41926" d="M1.846,29.332a6.3,6.3,0,0,0,7.958.784L5.318,34.6a6.3,6.3,0,0,0,7.958,9.7l-2.355,2.354a6.3,6.3,0,0,0,7.958,9.7l-.575.575a6.3,6.3,0,1,0,8.913,8.913l5.972-5.972a6.3,6.3,0,0,0,9.7,7.958L51.96,58.75a6.3,6.3,0,0,0,9.7,7.958L75.784,52.581a6.3,6.3,0,0,0-7.958-9.7l2.957-2.957a6.3,6.3,0,0,0-7.958-9.7L68.8,24.258a6.3,6.3,0,0,0-7.958-9.7l3.8-3.8A6.3,6.3,0,0,0,55.73,1.845l-8.472,8.472a6.3,6.3,0,0,0-9.7-7.958L25.67,14.25a6.3,6.3,0,0,0-9.7-7.958L1.846,20.419a6.3,6.3,0,0,0,0,8.913" transform="translate(2458.324 -5716.67)" fill="#f7f7f7"/>
    <path id="Path_41927" data-name="Path 41927" d="M3013.244,1954.271l-.436.436a.436.436,0,0,0,.617.617l.437-.436.436.436a.436.436,0,0,0,.617-.617l-.436-.436.436-.436a.436.436,0,0,0-.617-.617l-.436.436-.437-.436a.436.436,0,0,0-.617.617Z" transform="translate(-483.146 -7623.596)" fill="#fff"/>
    <path id="Path_41928" data-name="Path 41928" d="M616.865,2726.2l-.436.436a.437.437,0,0,0,.617.618l.436-.436.436.436a.437.437,0,0,0,.617-.618l-.436-.436.436-.436a.436.436,0,1,0-.617-.617l-.436.436-.436-.436a.436.436,0,1,0-.617.617Z" transform="translate(1856.591 -8377.28)" fill="#fff"/>
    <path id="Path_41929" data-name="Path 41929" d="M144.807,1090.861l-.436.436a.436.436,0,0,0,.617.617l.436-.436.436.436a.436.436,0,0,0,.617-.617l-.436-.436.436-.436a.436.436,0,0,0-.617-.617l-.436.436-.436-.436a.436.436,0,0,0-.617.617Z" transform="translate(2317.491 -6780.595)" fill="#fff"/>
    <path id="Path_41930" data-name="Path 41930" d="M2365.395,142.691l-.436.436a.436.436,0,0,0,.617.617l.436-.436.436.436a.437.437,0,0,0,.618-.617l-.436-.436.436-.436a.437.437,0,0,0-.618-.617l-.436.436-.436-.436a.436.436,0,0,0-.617.617Z" transform="translate(149.391 -5854.836)" fill="#fff"/>
    <path id="Path_41931" data-name="Path 41931" d="M1998.233,2802.387a.4.4,0,1,0-.4-.4.4.4,0,0,0,.4.4m0-1.677a1.275,1.275,0,1,1-1.275,1.275,1.276,1.276,0,0,1,1.275-1.275" transform="translate(508.568 -8451.182)" fill="#fff"/>
    <path id="Path_41932" data-name="Path 41932" d="M3014.833,1083.617a.4.4,0,1,0-.4-.4.4.4,0,0,0,.4.4m0-1.677a1.275,1.275,0,1,1-1.275,1.275,1.276,1.276,0,0,1,1.275-1.275" transform="translate(-484.003 -6773.038)" fill="#fff"/>
    <path id="Path_41933" data-name="Path 41933" d="M756.773,217.931a.4.4,0,1,0-.4-.4.4.4,0,0,0,.4.4m0-1.677a1.275,1.275,0,1,1-1.275,1.275,1.276,1.276,0,0,1,1.275-1.275" transform="translate(1720.684 -5927.814)" fill="#fff"/>
    <path id="Path_41934" data-name="Path 41934" d="M93.765,1893.367a.4.4,0,1,0-.4-.4.4.4,0,0,0,.4.4m0-1.677a1.275,1.275,0,1,1-1.275,1.275,1.276,1.276,0,0,1,1.275-1.275" transform="translate(2368.02 -7563.647)" fill="#fff"/>
    <path id="Path_41936" data-name="Path 41936" d="M3013.244,1954.271l-.436.436a.436.436,0,0,0,.617.617l.437-.436.436.436a.436.436,0,0,0,.617-.617l-.436-.436.436-.436a.436.436,0,0,0-.617-.617l-.436.436-.437-.436a.436.436,0,0,0-.617.617Z" transform="translate(-483.146 -7623.596)" fill="#f16053"/>
    <path id="Path_41937" data-name="Path 41937" d="M616.865,2726.2l-.436.436a.437.437,0,0,0,.617.618l.436-.436.436.436a.437.437,0,0,0,.617-.618l-.436-.436.436-.436a.436.436,0,1,0-.617-.617l-.436.436-.436-.436a.436.436,0,1,0-.617.617Z" transform="translate(1856.591 -8377.28)" fill="#f16053"/>
    <path id="Path_41938" data-name="Path 41938" d="M144.807,1090.861l-.436.436a.436.436,0,0,0,.617.617l.436-.436.436.436a.436.436,0,0,0,.617-.617l-.436-.436.436-.436a.436.436,0,0,0-.617-.617l-.436.436-.436-.436a.436.436,0,0,0-.617.617Z" transform="translate(2317.491 -6780.595)" fill="#f16053"/>
    <path id="Path_41939" data-name="Path 41939" d="M2365.395,142.691l-.436.436a.436.436,0,0,0,.617.617l.436-.436.436.436a.437.437,0,0,0,.618-.617l-.436-.436.436-.436a.437.437,0,0,0-.618-.617l-.436.436-.436-.436a.436.436,0,0,0-.617.617Z" transform="translate(149.391 -5854.836)" fill="#f16053"/>
    <path id="Path_41940" data-name="Path 41940" d="M1998.233,2802.387a.4.4,0,1,0-.4-.4.4.4,0,0,0,.4.4m0-1.677a1.275,1.275,0,1,1-1.275,1.275,1.276,1.276,0,0,1,1.275-1.275" transform="translate(508.568 -8451.182)" fill="#f16053"/>
    <path id="Path_41941" data-name="Path 41941" d="M3014.833,1083.617a.4.4,0,1,0-.4-.4.4.4,0,0,0,.4.4m0-1.677a1.275,1.275,0,1,1-1.275,1.275,1.276,1.276,0,0,1,1.275-1.275" transform="translate(-484.003 -6773.038)" fill="#f16053"/>
    <path id="Path_41942" data-name="Path 41942" d="M756.773,217.931a.4.4,0,1,0-.4-.4.4.4,0,0,0,.4.4m0-1.677a1.275,1.275,0,1,1-1.275,1.275,1.276,1.276,0,0,1,1.275-1.275" transform="translate(1720.684 -5927.814)" fill="#f16053"/>
    <path id="Path_41943" data-name="Path 41943" d="M93.765,1893.367a.4.4,0,1,0-.4-.4.4.4,0,0,0,.4.4m0-1.677a1.275,1.275,0,1,1-1.275,1.275,1.276,1.276,0,0,1,1.275-1.275" transform="translate(2368.02 -7563.647)" fill="#f16053"/>
    <path id="Path_41944" data-name="Path 41944" d="M1862.858,551.617l2.081-.843,3.186-1.29c2.264-.916,2.352-.952,2.443-1l.032-.016.092-.045h3.864a1.262,1.262,0,0,0,1.261-1.261V510.312a1.262,1.262,0,0,0-1.261-1.261h-3.864l-.092-.045-.032-.016c-.09-.045-.179-.081-2.454-1l-3.175-1.285-2.081-.842h11.7a4.425,4.425,0,0,1,3.128,1.284l.039.039a4.425,4.425,0,0,1,1.285,3.128v36.854a4.425,4.425,0,0,1-1.285,3.128l-.039.039a4.424,4.424,0,0,1-3.128,1.284Z" transform="translate(639.499 -6210.574)" fill="#ddd"/>
    <path id="Path_41945" data-name="Path 41945" d="M1617.7,488.652a1.664,1.664,0,0,1-1.661-1.663V441.433a1.66,1.66,0,0,1,2.286-1.541l13.021,5.273a2.818,2.818,0,0,1,1.76,2.61v32.869a2.817,2.817,0,0,1-1.76,2.611l-13.021,5.273a1.662,1.662,0,0,1-.625.123" transform="translate(880.484 -6146.046)" fill="#f0efef"/>
    <path id="Path_41946" data-name="Path 41946" d="M1723.935,1363.369c-1.042,0-1.857-1.2-1.857-2.739s.816-2.739,1.857-2.739,1.858,1.2,1.858,2.739-.816,2.739-1.858,2.739" transform="translate(776.951 -7042.465)" fill="#b5b5b6"/>
    <path id="Path_41947" data-name="Path 41947" d="M1166.548,523.9V510.312a4.425,4.425,0,0,1,1.284-3.128l.039-.039A4.425,4.425,0,0,1,1171,505.86h6.173v3.191H1171a1.262,1.262,0,0,0-1.261,1.261V523.9Z" transform="translate(1319.35 -6210.574)" fill="#ddd"/>
    <path id="Path_41948" data-name="Path 41948" d="M1171,1695.514a4.424,4.424,0,0,1-3.128-1.284l-.039-.039a4.424,4.424,0,0,1-1.284-3.128V1677.45h3.191v13.613a1.262,1.262,0,0,0,1.261,1.261h6.173v3.191Z" transform="translate(1319.35 -7354.472)" fill="#ddd"/>
    <path id="Path_41949" data-name="Path 41949" d="M509.747,1090.7a.7.7,0,0,1-.442-.158l-10.836-8.8a.7.7,0,0,1,0-1.091l10.836-8.8a.694.694,0,0,1,.442-.158.7.7,0,0,1,.7.7v3.975h9.807a.7.7,0,0,1,.7.7v8.246a.7.7,0,0,1-.7.7h-9.807v3.975a.7.7,0,0,1-.7.7" transform="translate(1971.891 -6763.03)" fill="#fff"/>
    <path id="Path_41950" data-name="Path 41950" d="M1326.607,659.36v38.5h-5.735a.825.825,0,0,1-.824-.824V683.874h2.623a1.142,1.142,0,0,0,1.14-1.14v-8.246a1.142,1.142,0,0,0-1.14-1.14h-2.623V660.183a.825.825,0,0,1,.824-.823Z" transform="translate(1169.478 -6360.446)" fill="#f16053"/>
    <path id="Path_41951" data-name="Path 41951" d="M2197.593,2485.576h-.005l.016-.016-.01.016" transform="translate(312.68 -8143.48)" fill="#ddd"/>
    <path id="Path_41952" data-name="Path 41952" d="M534.271,497.328a2.1,2.1,0,0,1-2.029-1.562h-5.805A4.876,4.876,0,0,1,523,494.355l0,0-.037-.037,0,0,0,0a4.88,4.88,0,0,1-1.331-2.552,4.437,4.437,0,0,0,1.027,1.629l.039.039a4.42,4.42,0,0,0,2.365,1.22,4.015,4.015,0,0,0,1.378.243h5.581a1.665,1.665,0,0,0,1.62,1.384,1.215,1.215,0,0,0,1.094.088l1.474-.6H536.2l2.6-1.053h2.336l-.44.178h9.447a4,4,0,0,0,2.821-1.158L553,493.7a4,4,0,0,0,1.158-2.821V454.023a4.014,4.014,0,0,0-.243-1.379,4.422,4.422,0,0,0-1.219-2.365l-.039-.039a4.435,4.435,0,0,0-1.629-1.027,4.877,4.877,0,0,1,2.552,1.331l0,0,.037.037,0,0,0,0a4.875,4.875,0,0,1,1.411,3.435v36.854a4.875,4.875,0,0,1-1.411,3.435l-.043.043a4.876,4.876,0,0,1-3.435,1.411h-4.4l.01-.016-.016.016h-7.205l-3.475,1.407a2.091,2.091,0,0,1-.789.155m-2.277-4.753h0v0m16.771-1.053h-2.081l1.068-.432a2.38,2.38,0,0,0,1.487-2.206V456.015a2.375,2.375,0,0,0-.2-.95,2.819,2.819,0,0,0-1.74-2.276l-1.587-.643h.26l.44.178h3.758a1.262,1.262,0,0,1,.615,1.082v.1a.823.823,0,0,0-.645-.312h-1.651a3.255,3.255,0,0,1,1.624,2.816v32.869a3.258,3.258,0,0,1-1.349,2.638m-22.839,0h-.1a1.262,1.262,0,0,1-1.082-.614c0-.01,0-.02,0-.031V477.713h-.178v-.886h1.053v.012h2.623a.266.266,0,0,0,.266-.266v-8.246a.266.266,0,0,0-.178-.251v-.364a.7.7,0,0,0-.236-.525h.148a.4.4,0,0,1,.525.525v8.246a1.142,1.142,0,0,1-1.14,1.14H525v13.164a7.454,7.454,0,0,1,.928,1.261m-8.2-9.131a1.141,1.141,0,0,1-.717-.256l-10.836-8.8a1.136,1.136,0,0,1-.422-.885,1.148,1.148,0,0,1,.008-.139.685.685,0,0,0,.073.069l10.836,8.8a.7.7,0,0,0,.69.113l.2.163a.262.262,0,0,0,.166.06.266.266,0,0,0,.267-.266V477.1a.266.266,0,0,1,.266-.266h3.112v.875h-2.5v3.537a1.143,1.143,0,0,1-1.142,1.141m7.888-15.383h-.875V454.023a1.7,1.7,0,0,1,1.7-1.7h5.557v.875h-.437v-.616h-5.736a.825.825,0,0,0-.824.824v13.164h.616v.437m-3.191,0h-.875V467h.875Zm-3.555,0h-.875v-3.359a.263.263,0,0,0-.178-.251v-.365a.7.7,0,0,0-.227-.517,1.079,1.079,0,0,1,.138-.009,1.143,1.143,0,0,1,1.141,1.141v3.359m13.127-17h0v0m6.1-1.053h-.26l-3.4-1.378a2.094,2.094,0,0,1,.627.149l3.035,1.229" transform="translate(1964.528 -6153.67)" fill="#c7c7c6"/>
    <path id="Path_41953" data-name="Path 41953" d="M1866.418,551.617h-2.336l1.561-.632,3.183-1.289c2.118-.857,2.339-.946,2.414-.984l.035-.017.183-.09h.07l.44-.178h2.081q-.133.1-.276.178h1.652a.824.824,0,0,0,.823-.824V510.927a.82.82,0,0,0-.178-.511v-.1a1.262,1.262,0,0,0-.615-1.082,1.7,1.7,0,0,1,1.667,1.7v36.854a1.7,1.7,0,0,1-1.7,1.7H1871.7l-2,.811-3.278,1.327m12.778-42.069a4.007,4.007,0,0,0-.915-1.442l-.036-.035a4,4,0,0,0-2.821-1.158h-9.446l5.279,2.138H1871l-7.879-3.191h.26l.44.178h11.606a4.916,4.916,0,0,1,.884.08,4.436,4.436,0,0,1,1.629,1.027l.04.039a4.425,4.425,0,0,1,1.219,2.364" transform="translate(639.244 -6210.574)" fill="silver"/>
    <path id="Path_41954" data-name="Path 41954" d="M1617.681,496.015a1.665,1.665,0,0,1-1.619-1.384h.154v-2.316h-.178v-.875h.178v-38.5h-.178v-.875h.178v-2.316h-.178v-.875h.248a2.1,2.1,0,0,1,2.029-1.562q.081,0,.162.006l3.4,1.378,7.88,3.191,1.587.643a2.819,2.819,0,0,1,1.74,2.276,2.38,2.38,0,0,0-1.289-1.255l-1.508-.611h-.07l-.183-.09-.035-.018c-.074-.037-.3-.127-2.421-.987l-3.176-1.286-4.161-1.685h.007l-1.474-.6a1.223,1.223,0,0,0-1.685,1.135v45.555a1.218,1.218,0,0,0,.59,1.048" transform="translate(880.484 -6153.41)" fill="#d0d0cf"/>
    <path id="Path_41955" data-name="Path 41955" d="M1174.963,531.263h-.875V518.289a4.873,4.873,0,0,1,1.411-3.435l.043-.043a4.876,4.876,0,0,1,3.435-1.411h5.557v.875h-5.557a4,4,0,0,0-2.821,1.158l-.035.035a4,4,0,0,0-1.158,2.821Z" transform="translate(1311.988 -6217.936)" fill="silver"/>
    <path id="Path_41956" data-name="Path 41956" d="M1170.237,1702.812a4.418,4.418,0,0,1-2.365-1.22l-.039-.039a4.433,4.433,0,0,1-1.027-1.629,4.918,4.918,0,0,1-.08-.884v-13.164h-.178V1685h.178v-.012h3.013v.886H1167.6v13.164a4,4,0,0,0,1.158,2.821l.036.035a4.01,4.01,0,0,0,1.442.915m6.936-2.073h-5.557a1.7,1.7,0,0,1-1.7-1.667,1.262,1.262,0,0,0,1.082.615h.1a.819.819,0,0,0,.511.178h5.557v.875" transform="translate(1319.35 -7361.833)" fill="silver"/>
    <path id="Path_41957" data-name="Path 41957" d="M517.453,1098.421a.7.7,0,0,1-.442-.158l-10.836-8.8a.751.751,0,0,1-.073-.069,1.136,1.136,0,0,1,.413-.747l10.836-8.8a1.144,1.144,0,0,1,.579-.247.7.7,0,0,1,.227.516v.365a.273.273,0,0,0-.089-.015.262.262,0,0,0-.166.06l-10.836,8.8a.266.266,0,0,0,0,.412l10.635,8.637a.7.7,0,0,1-.248.045m11.214-13.263a.269.269,0,0,0-.088-.015H518.6a.266.266,0,0,1-.266-.266v-.787h.875v.178h2.681v-.178h.875v.166h2.316v-.166h.875v.178h2.475a.7.7,0,0,1,.236.525v.364" transform="translate(1964.185 -6770.753)" fill="#ddd"/>
    <path id="Path_41958" data-name="Path 41958" d="M1320.685,697.839a.825.825,0,0,1-.637-.8V683.874h2.623a1.142,1.142,0,0,0,1.14-1.14v-8.246a1.138,1.138,0,0,0-.087-.438,1.142,1.142,0,0,1,.7,1.053v8.246a1.142,1.142,0,0,1-1.14,1.14h-2.623v13.164a.826.826,0,0,0,.021.187m-.021-24.492h-.616V660.183a.825.825,0,0,1,.824-.823h5.735v.616h-5.12a.824.824,0,0,0-.823.823v12.548" transform="translate(1169.478 -6360.446)" fill="#dd5445"/>
    <path id="Path_41959" data-name="Path 41959" d="M2290.332,660.183v36.854a.825.825,0,0,1-.824.824h-1.651a3.258,3.258,0,0,0,1.624-2.816V662.176a3.256,3.256,0,0,0-1.624-2.816h1.651a.824.824,0,0,1,.824.823" transform="translate(224.545 -6360.446)" fill="#f16053"/>
    <path id="Path_41960" data-name="Path 41960" d="M1734.481,1371.822a2.087,2.087,0,0,1-1.749-1.09,3.737,3.737,0,0,1-.484-1.334,1.861,1.861,0,0,0,1.617,1.371l.064,0a.971.971,0,0,0,.552.18c.784,0,1.421-1.031,1.421-2.3a3.4,3.4,0,0,0-.226-1.245,2.616,2.616,0,0,0-1.137-1.93,2.1,2.1,0,0,1,1.691,1.089,4.259,4.259,0,0,1,0,4.174,2.088,2.088,0,0,1-1.749,1.09" transform="translate(767.021 -7049.866)" fill="#d0d0cf"/>
    <path id="Path_41961" data-name="Path 41961" d="M1731.3,1370.73a1.86,1.86,0,0,1-1.617-1.371,4.522,4.522,0,0,1-.062-.753,4.023,4.023,0,0,1,.546-2.087,2.087,2.087,0,0,1,1.749-1.09h.058a2.617,2.617,0,0,1,1.137,1.93c-.253-.635-.694-1.057-1.195-1.057-.785,0-1.421,1.031-1.421,2.3a2.6,2.6,0,0,0,.869,2.122l-.064,0" transform="translate(769.589 -7049.827)" fill="#9c9c9c"/>
    <path id="Path_41962" data-name="Path 41962" d="M1597.538,465.4h.875V426.9h-.875Zm0,0h.875V426.9h-.875Zm17.067-2.816a2.38,2.38,0,0,1-1.487,2.206l-1.508.611-2.159.875-5.72,2.316-2.159.875-1.473.6a1.222,1.222,0,0,1-1.561-.6,1.212,1.212,0,0,1-.124-.539V423.371a1.223,1.223,0,0,1,1.685-1.135l1.474.6,10.038,4.066,1.508.611a2.38,2.38,0,0,1,1.487,2.205Zm.318-34.687a3.251,3.251,0,0,0-1.477-1.2l-.586-.238-1.08-.437-5.72-2.316-1.08-.437-1.08-.437-3.475-1.407a2.1,2.1,0,0,0-2.818,1.407,2.067,2.067,0,0,0-.067.437c0,.034,0,.067,0,.1v45.555c0,.034,0,.068,0,.1a2.067,2.067,0,0,0,.067.437,2.1,2.1,0,0,0,2.818,1.407l3.475-1.407,1.08-.437,1.08-.437,3.719-1.506,2-.811,1.08-.437.586-.238a3.256,3.256,0,0,0,2.033-3.016V429.714a3.238,3.238,0,0,0-.556-1.819" transform="translate(898.547 -6127.984)" fill="#333"/>
    <path id="Path_41963" data-name="Path 41963" d="M1705.863,1339.39a2.087,2.087,0,0,0-1.749,1.089,4.258,4.258,0,0,0,0,4.174,1.948,1.948,0,0,0,3.5,0,4.259,4.259,0,0,0,0-4.174,2.087,2.087,0,0,0-1.749-1.089m0,.874c.784,0,1.42,1.031,1.42,2.3s-.636,2.3-1.42,2.3-1.421-1.03-1.421-2.3.636-2.3,1.421-2.3" transform="translate(795.023 -7024.402)" fill="#333"/>
    <path id="Path_41964" data-name="Path 41964" d="M1151.239,492.249V505.4h-2.316V492.249a4,4,0,0,1,1.158-2.821l.035-.035a4,4,0,0,1,2.821-1.158h5.736v2.316h-5.736a1.7,1.7,0,0,0-1.7,1.7m1.7-4.889a4.875,4.875,0,0,0-3.435,1.411l-.043.043a4.873,4.873,0,0,0-1.411,3.435v14.026h4.065V492.249a.824.824,0,0,1,.824-.823h6.61V487.36Z" transform="translate(1337.412 -6192.512)" fill="#333"/>
    <path id="Path_41965" data-name="Path 41965" d="M1785.854,529.1a4,4,0,0,1-1.158,2.821l-.036.035a4,4,0,0,1-2.821,1.158h-9.452c5.9-2.387,5.495-2.22,5.69-2.316h3.762a1.7,1.7,0,0,0,1.7-1.7V492.249a1.7,1.7,0,0,0-1.7-1.7h-3.762c-.195-.1.211.073-5.69-2.316h9.452a4,4,0,0,1,2.821,1.158l.036.035a4,4,0,0,1,1.158,2.821Zm.506-38.718a4.873,4.873,0,0,0-1.042-1.571l0,0,0,0-.038-.037,0,0a4.875,4.875,0,0,0-3.436-1.411H1767.9l4.161,1.685,3.176,1.286c2.125.86,2.347.95,2.421.987l.035.018.183.09h3.966a.824.824,0,0,1,.824.823V529.1a.824.824,0,0,1-.824.823h-3.966l-.183.09-.035.017c-.075.038-.3.127-2.414.984l-3.183,1.289-4.161,1.685h13.942a4.875,4.875,0,0,0,3.436-1.411l.043-.043a4.876,4.876,0,0,0,1.41-3.435V492.249a4.864,4.864,0,0,0-.368-1.864" transform="translate(732.214 -6192.512)" fill="#333"/>
    <path id="Path_41966" data-name="Path 41966" d="M1150.081,1675.821a4,4,0,0,1-1.158-2.821v-13.175h2.316V1673a1.7,1.7,0,0,0,1.7,1.7h5.736v2.316h-5.736a4,4,0,0,1-2.821-1.158Zm2.856-2a.824.824,0,0,1-.824-.823v-14.05h-4.065V1673a4.874,4.874,0,0,0,1.411,3.435l0,0,0,0,.037.037,0,0a4.875,4.875,0,0,0,3.435,1.41h6.61v-4.065Z" transform="translate(1337.412 -7336.409)" fill="#333"/>
    <path id="Path_41967" data-name="Path 41967" d="M502.46,1067.254a.266.266,0,0,1-.266.266h-9.978a.266.266,0,0,0-.266.266v4.146a.266.266,0,0,1-.267.266.261.261,0,0,1-.166-.06l-10.836-8.8a.266.266,0,0,1,0-.412l10.836-8.8a.262.262,0,0,1,.166-.06.266.266,0,0,1,.267.266v4.146a.266.266,0,0,0,.266.266h9.978a.266.266,0,0,1,.266.266Zm-.266-9.386h-9.37v-3.537a1.14,1.14,0,0,0-1.859-.885l-10.836,8.8a1.14,1.14,0,0,0,0,1.77l10.836,8.8a1.139,1.139,0,0,0,1.859-.885v-3.538h9.37a1.142,1.142,0,0,0,1.14-1.14v-8.246a1.141,1.141,0,0,0-1.14-1.14" transform="translate(1989.955 -6744.967)" fill="#333"/>
    <path id="Path_41968" data-name="Path 41968" d="M983.929,2423.536a1.217,1.217,0,0,0,.124.539H968.615a.438.438,0,0,1,0-.875h15.313Z" transform="translate(1513.031 -8082.594)" fill="#333"/>
    <path id="Path_41969" data-name="Path 41969" d="M1791.234,2423.637a.438.438,0,0,1-.437.438h-22.639l2.159-.875H1790.8a.438.438,0,0,1,.438.438" transform="translate(731.96 -8082.594)" fill="#333"/>
    <path id="Path_41970" data-name="Path 41970" d="M810.027,2424.075h-1.992a.438.438,0,0,1,0-.875h1.992a.438.438,0,0,1,0,.875" transform="translate(1669.815 -8082.594)" fill="#333"/>
    <path id="Path_41971" data-name="Path 41971" d="M1093.417,2333.4h-1.992a.437.437,0,1,1,0-.875h1.992a.437.437,0,1,1,0,.875" transform="translate(1393.124 -7994.067)" fill="#333"/>
    <path id="Path_41972" data-name="Path 41972" d="M932.837,2333.4h-1.991a.437.437,0,1,1,0-.875h1.991a.437.437,0,1,1,0,.875" transform="translate(1549.908 -7994.067)" fill="#333"/>
    <path id="Path_41973" data-name="Path 41973" d="M2502.787,2333.4H2500.8a.437.437,0,1,1,0-.875h1.992a.437.437,0,1,1,0,.875" transform="translate(17.067 -7994.067)" fill="#333"/>
    <path id="Path_41974" data-name="Path 41974" d="M2663.377,2333.4h-1.992a.437.437,0,0,1,0-.875h1.992a.437.437,0,1,1,0,.875" transform="translate(-139.727 -7994.067)" fill="#333"/>
    <path id="Path_41975" data-name="Path 41975" d="M2786.2,2424.075h-1.991a.438.438,0,0,1,0-.875h1.991a.438.438,0,0,1,0,.875" transform="translate(-259.645 -8082.594)" fill="#333"/>
    <rect id="Rectangle_4864" data-name="Rectangle 4864" width="77.63" height="69.671" transform="translate(2458.324 -5716.671)" fill="none"/>
  </g>
</svg>
