<svg xmlns="http://www.w3.org/2000/svg" xmlns:xlink="http://www.w3.org/1999/xlink" width="24" height="24" viewBox="0 0 24 24">
  <defs>
    <clipPath id="clip-path">
      <rect id="Rectangle_4512" data-name="Rectangle 4512" width="21.469" height="21.465" fill="#aeaeb2"/>
    </clipPath>
  </defs>
  <g id="Chat_5" data-name="Chat 5" transform="translate(-12888.734 8622.732)">
    <rect id="Rectangle_4833" data-name="Rectangle 4833" width="24" height="24" transform="translate(12888.734 -8622.732)" fill="none"/>
    <g id="Group_20439" data-name="Group 20439" transform="translate(12890 -8621.465)">
      <g id="Group_20438" data-name="Group 20438" clip-path="url(#clip-path)">
        <path id="Path_23912" data-name="Path 23912" d="M0,2.349C.047,2.176.085,2,.142,1.831A2.679,2.679,0,0,1,2.734,0Q6.349,0,9.964,0c1.586,0,3.172,0,4.758,0A2.664,2.664,0,0,1,17.37,2.11a2.938,2.938,0,0,1,.066.643q.007,3.951,0,7.9a2.682,2.682,0,0,1-2.769,2.761q-4.758,0-9.515,0a.538.538,0,0,0-.377.132Q3.044,15,1.3,16.444a1.707,1.707,0,0,1-.434.282.666.666,0,0,1-.866-.5V2.349M1.341,14.658c.09-.071.144-.112.2-.155.859-.715,1.72-1.427,2.574-2.148a1.144,1.144,0,0,1,.782-.284q4.851.009,9.7,0a1.366,1.366,0,0,0,1.5-1.51q0-3.845,0-7.691a1.371,1.371,0,0,0-1.522-1.531H2.861A1.368,1.368,0,0,0,1.341,2.856q0,5.773,0,11.547Z" transform="translate(0 0)" fill="#aeaeb2"/>
        <path id="Path_23913" data-name="Path 23913" d="M117.609,118.35a5.058,5.058,0,0,1-.491-.308c-.942-.746-1.875-1.5-2.819-2.245a.617.617,0,0,0-.354-.124c-2.962-.007-5.924,0-8.887-.006a2.635,2.635,0,0,1-2.67-2.1,5.757,5.757,0,0,1-.064-1.353.637.637,0,0,1,.666-.572.664.664,0,0,1,.654.614c.015.209,0,.419.006.629a1.353,1.353,0,0,0,1.447,1.438q4.527,0,9.054,0a1.246,1.246,0,0,1,.841.3c.631.519,1.274,1.024,1.912,1.534.041.033.086.062.16.115v-.236q0-5.481,0-10.961a1.354,1.354,0,0,0-1.365-1.48.67.67,0,1,1,.061-1.339,2.694,2.694,0,0,1,2.64,2.529c.005.112.005.223.005.335q0,6.172.006,12.345a.845.845,0,0,1-.509.888Z" transform="translate(-96.942 -96.885)" fill="#aeaeb2"/>
        <path id="Path_23914" data-name="Path 23914" d="M81.305,78.01c-1.32,0-2.64,0-3.96,0a.668.668,0,0,1-.666-.909.651.651,0,0,1,.572-.427,1.93,1.93,0,0,1,.209,0h7.731a1.481,1.481,0,0,1,.292.016.668.668,0,0,1-.135,1.322c-.789.007-1.578,0-2.368,0H81.305" transform="translate(-72.607 -72.643)" fill="#aeaeb2"/>
        <path id="Path_23915" data-name="Path 23915" d="M79.957,129.1c-.88,0-1.76,0-2.64,0a.665.665,0,0,1-.637-.928.656.656,0,0,1,.648-.411h2.095c1.068,0,2.137,0,3.205,0a.671.671,0,1,1-.012,1.34H79.957" transform="translate(-72.6 -121.05)" fill="#aeaeb2"/>
      </g>
    </g>
  </g>
</svg>
