<svg xmlns="http://www.w3.org/2000/svg" xmlns:xlink="http://www.w3.org/1999/xlink" width="42" height="42" viewBox="0 0 42 42">
  <defs>
    <clipPath id="clip-path">
      <rect id="Rectangle_4856" data-name="Rectangle 4856" width="25.522" height="23.824" fill="#555"/>
    </clipPath>
  </defs>
  <g id="Group_22149" data-name="Group 22149" transform="translate(-33 -410)">
    <rect id="Rectangle_4861" data-name="Rectangle 4861" width="42" height="42" transform="translate(33 410)" fill="none"/>
    <g id="Group_22148" data-name="Group 22148">
      <path id="blob_3_" data-name="blob (3)" d="M-43.364-42.975a8.954,8.954,0,0,1,5.03,5.324A9.66,9.66,0,0,1-38.5-30.6a11.631,11.631,0,0,1-5.164,5.521c-2.367,1.331-5.245,1.986-8.8,2.728-3.55.764-7.773,1.593-11.243.567a10.232,10.232,0,0,1-6.886-7.048,10.377,10.377,0,0,1,2.367-8.947,15.258,15.258,0,0,1,7.935-4.844c2.878-.764,5.7-.676,8.607-.807C-48.77-43.543-45.758-43.87-43.364-42.975Z" transform="translate(117.24 431.953) rotate(-30)" fill="#0088f5" opacity="0.15"/>
      <g id="Group_22139" data-name="Group 22139" transform="translate(-38.831 -2.908)">
        <rect id="Rectangle_4855" data-name="Rectangle 4855" width="28" height="28" transform="translate(78.831 421.908)" fill="none"/>
        <g id="Group_22129" data-name="Group 22129" transform="translate(80.069 423.995)">
          <g id="Group_22129-2" data-name="Group 22129" transform="translate(0 0)" clip-path="url(#clip-path)">
            <path id="Path_41897" data-name="Path 41897" d="M5.1,18.717c-.877,0-1.726.015-2.574,0A2.491,2.491,0,0,1,.342,17.433,2.319,2.319,0,0,1,0,16.219Q0,9.362.006,2.5A2.526,2.526,0,0,1,2.555.006C4.681,0,6.807,0,8.934,0H22.782a2.561,2.561,0,0,1,2.739,2.74q0,6.672,0,13.343a2.531,2.531,0,0,1-1.9,2.539,3.282,3.282,0,0,1-.814.089c-3.3.006-6.609,0-9.914.01a.781.781,0,0,0-.449.158q-2.852,2.262-5.69,4.542c-.083.067-.165.134-.25.2a.854.854,0,0,1-1.4-.691q0-1.94,0-3.881v-.333m1.7,2.479c.115-.09.178-.138.24-.188,1.521-1.217,3.046-2.43,4.561-3.656a1.45,1.45,0,0,1,.97-.343q5.143.015,10.286.005a.863.863,0,0,0,.956-.952q0-6.7,0-13.4A.867.867,0,0,0,22.85,1.7H2.678a.872.872,0,0,0-.976.985q0,6.671,0,13.342a.869.869,0,0,0,.976.985c1.072,0,2.144,0,3.216,0a.851.851,0,0,1,.911.915c0,.983,0,1.967,0,2.95V21.2" transform="translate(0 0)" fill="#555"/>
            <path id="Path_41898" data-name="Path 41898" d="M23.672,21.341q3.363,0,6.725,0a.848.848,0,0,1,.862,1.141.827.827,0,0,1-.743.557c-.079.008-.159,0-.239,0H17.04a1.721,1.721,0,0,1-.37-.022.848.848,0,0,1,.2-1.676c1.214-.005,2.428,0,3.642,0h3.163" transform="translate(-10.898 -14.533)" fill="#555"/>
            <path id="Path_41899" data-name="Path 41899" d="M20.254,33.711q-1.648,0-3.3,0a.855.855,0,1,1,0-1.7q3.309,0,6.618,0a.854.854,0,1,1,0,1.7q-1.661,0-3.322,0" transform="translate(-10.901 -21.799)" fill="#555"/>
          </g>
        </g>
      </g>
    </g>
  </g>
</svg>
