<svg id="Layer_2" data-name="Layer 2" xmlns="http://www.w3.org/2000/svg" width="102" height="38.53" viewBox="0 0 102 38.53">
  <g id="Layer_1" data-name="Layer 1">
    <path id="Path_23095" data-name="Path 23095" d="M56.3,22.112c-.124,0-.2.08-.27.27s-.058.2-.095.307C55.25,24.83,54.1,26.978,52.8,26.978c-.935,0-1.461-1.418-1.461-2.923,0-3.1.365-8.469.365-9.222s-.307-1.1-.818-1.1H48.1c-.424,0-.731.395-.731,1.016v.278l-.1.037a5.042,5.042,0,0,0-4.026-1.878c-3.654,0-6.43,4.012-6.5,9.5v.227a13.54,13.54,0,0,0,1.016,5.451c.986,2.243,2.667,3.61,4.859,3.61a5.29,5.29,0,0,0,4.962-3.566l.124.037v.117c0,2.192,1.659,3.412,3.873,3.412a5.751,5.751,0,0,0,4.384-2.192,13.153,13.153,0,0,0,2.667-5.531,1.79,1.79,0,0,0,.066-.387C58.67,23.332,56.58,22.112,56.3,22.112ZM43.559,26.978c-1.388,0-2.273-1.534-2.273-3.763,0-2.923,1.52-5.115,3.515-5.115a3.88,3.88,0,0,1,2.543,1.374C47.344,22.148,46.1,26.978,43.559,26.978Z" transform="translate(-9.866 -3.552)"/>
    <path id="Path_23096" data-name="Path 23096" d="M81.417,22.1c-.117,0-.2.153-.27.387a2.017,2.017,0,0,1-.058.2c-.57,1.856-1.768,4.582-4.633,5.225l-.058-.2c1.089-.943,2.083-3.456,2.083-6.2,0-4.048-2.053-8.359-5.846-8.359-2.6,0-4.055,1.41-5.334,3.61l-.117-.037c.066-.4.212-1.571.212-1.893,0-.665-.241-1.133-.848-1.133H63.923c-.731,0-.913.468-.913,1.374V40.306c0,.906.307,1.3.884,1.3h2.7c.511,0,.782-.438.782-1.14V29.053c0-5.3,1.3-10.961,4.267-10.961,1.461,0,2.273,1.608,2.273,3.734,0,2.506-1.06,5.115-2.923,5.115-.848,0-1.359-.592-1.637-.592s-1.264,2.923-1.264,3.493c0,.431.994,1.06,1.936,1.41a11.472,11.472,0,0,0,3.544.628c3.471,0,6.2-1.1,8.038-3.164a10.018,10.018,0,0,0,2.156-4.384,3.587,3.587,0,0,0,.095-.548C83.813,23.361,81.753,22.1,81.417,22.1Z" transform="translate(-16.939 -3.544)"/>
    <path id="Path_23097" data-name="Path 23097" d="M97.05,19.053c-.183,0-.241.153-.3.351-.548,1.966-1.936,4.516-3.361,4.516-.972,0-1.366-1.257-1.366-2.828,0-.935.212-6.788.212-9.338,0-.731-.3-1.1-.848-1.1H88.464c-.49,0-.731.431-.731,1.06V22.268a10.961,10.961,0,0,0,.475,3.427,4.149,4.149,0,0,0,4.158,3.164A5.721,5.721,0,0,0,96.75,26.6a13.606,13.606,0,0,0,2.6-5.473,1.775,1.775,0,0,0,.058-.387C99.41,20.273,97.349,19.053,97.05,19.053ZM90.02,1.83c-1.388,0-2.36,1.176-2.36,2.828,0,1.841.913,3.018,2.243,3.018,1.513,0,2.389-1.257,2.389-3.062S91.3,1.83,90.02,1.83Z" transform="translate(-23.577 -0.493)"/>
    <path id="Path_23098" data-name="Path 23098" d="M115.262,18.56c-.124,0-.212.08-.27.314l-.095.285c-.555,1.6-1.461,2.652-2.448,2.652-1.337,0-2.3-2.587-2.85-3.763a.636.636,0,0,0-.606-.351c-.935,0-3.208,1.849-3.208,3.1a6.905,6.905,0,0,0,1.549,3.412,22.477,22.477,0,0,1,.417,4.384c0,2.981-.606,4.983-1.783,4.983s-1.637-1.768-1.637-5.115V16.638c4.465-2.024,7.811-5.963,7.811-10.515,0-3.727-2.09-6.123-5.057-6.123C102.46,0,100.1,5.846,100.1,12.787v15.9c0,6.313,1.9,9.843,5.51,9.843,4.048,0,5.846-4.435,5.846-9.3a21.356,21.356,0,0,0-.212-2.821l.066-.08a2.485,2.485,0,0,0,.928.117,4.494,4.494,0,0,0,3.135-1.4,8.125,8.125,0,0,0,2.192-4.253,2.965,2.965,0,0,0,.088-.548C117.622,19.78,115.562,18.56,115.262,18.56ZM107.086,4.552c.731,0,1.184.548,1.184,1.534,0,2.075-1.666,4.428-3.939,5.846C104.543,7.651,105.485,4.552,107.086,4.552Z" transform="translate(-26.927)"/>
    <path id="Path_23099" data-name="Path 23099" d="M134.322,26.544V14.97c0-.628-.3-1.06-.818-1.06h-2.923c-.49,0-.731.395-.731,1.133V16.3c0,5.115-1.418,10.873-3.537,10.873-1.3,0-1.608-1.5-1.608-3.339,0-3.412.212-6.43.212-8.769,0-.731-.27-1.133-.818-1.133h-2.872c-.424,0-.818.351-.818,1.1V25.521a10.319,10.319,0,0,0,.49,3.274c.731,2.083,2.192,3.317,4.077,3.317a5.461,5.461,0,0,0,5.151-3.8l.124.037v2.923c0,4.625-1.936,6-3.727,6a4.384,4.384,0,0,1-2.762-1.235c-.278-.234-.395-.307-.548-.307-.541,0-1.966,2.7-1.966,3.522,0,1.067,2.192,3.025,5.115,3.025,5.115,0,7.841-3.96,7.994-10.676h.037Z" transform="translate(-32.396 -3.746)"/>
    <path id="Path_23100" data-name="Path 23100" d="M33.118,20.4c-.124,0-.219.08-.278.27s-.044.161-.073.248C32.22,22.779,30.9,25.3,28.851,25.3c-1.819,0-2.426-1.461-2.426-4.282V8c0-.731-.27-1.176-.848-1.176h-2.66c-.548,0-.848.431-.848,1.176V23.188c0,4.158,2.36,7.015,5.846,7.015a6.749,6.749,0,0,0,5.846-3.61,13.262,13.262,0,0,0,1.608-4,3.048,3.048,0,0,0,.088-.555C35.479,21.566,33.389,20.4,33.118,20.4Z" transform="translate(-5.914 -1.837)"/>
    <path id="Path_23101" data-name="Path 23101" d="M-.011,5.22s9.55,10.961,27.767,5.846l-.519,3.617S12.623,19.8-.04,11.212Z" transform="translate(0.04 -1.406)"/>
  </g>
</svg>
